<?xml version="1.0" encoding="utf-8"?>
<!-- Generator: Adobe Illustrator 26.0.3, SVG Export Plug-In . SVG Version: 6.00 Build 0)  -->
<svg version="1.1" id="Calque_1" xmlns="http://www.w3.org/2000/svg" x="0px" y="0px"
     viewBox="0 0 500 313" style="enable-background:new 0 0 500 313;" xml:space="preserve">
<style type="text/css">
	.st0{fill:#1EDC78;}
	.st1{fill:#112E45;}
</style>
<g>
	<g>
		<path class="st0" d="M104.3,0v26.4c43,0,77.9,34.9,77.9,77.9h26.4C208.7,46.7,161.9,0,104.3,0"/>
		<path class="st0" d="M104.3,52.2v25.8c14.6,0,26.4,11.8,26.4,26.4h25.8C156.5,75.5,133.1,52.2,104.3,52.2"/>
		<path class="st0" d="M104.3,104.3v26.4c43,0,77.9,34.9,77.9,77.9h26.4C208.7,151,161.9,104.3,104.3,104.3"/>
		<path class="st0" d="M104.3,156.5v25.8c14.6,0,26.4,11.8,26.4,26.4h25.8C156.5,179.9,133.1,156.5,104.3,156.5"/>
		<path class="st0" d="M104.3,208.7v-26.4c-43,0-77.9-34.9-77.9-77.9H0C0,161.9,46.7,208.7,104.3,208.7"/>
		<path class="st0" d="M104.3,156.5v-25.8c-14.6,0-26.4-11.8-26.4-26.4H52.2C52.2,133.1,75.5,156.5,104.3,156.5"/>
		<path class="st0" d="M104.3,313v-26.4c-43,0-77.9-34.9-77.9-77.9H0C0,266.3,46.7,313,104.3,313"/>
		<path class="st0" d="M104.3,260.8V235c-14.6,0-26.4-11.8-26.4-26.4H52.2C52.2,237.5,75.5,260.8,104.3,260.8"/>
	</g>
	<g>
		<rect x="482.2" y="221.9" class="st1" width="17.8" height="91"/>
		<path class="st1" d="M190.9,293.6c0,6.7-2.3,11.8-7,15.3c-4.7,3.5-11.6,5.3-20.9,5.3c-4.8,0-8.8-0.3-12.2-1
			c-3.4-0.6-6.5-1.6-9.4-2.8v-14.7c3.3,1.6,7.1,2.9,11.2,3.9c4.2,1.1,7.8,1.6,11,1.6c6.5,0,9.7-1.9,9.7-5.6c0-1.4-0.4-2.5-1.3-3.4
			c-0.9-0.9-2.3-1.9-4.4-3c-2.1-1.1-4.9-2.4-8.4-3.9c-5-2.1-8.7-4.1-11.1-5.9c-2.4-1.8-4.1-3.9-5.1-6.2s-1.6-5.2-1.6-8.6
			c0-5.8,2.3-10.3,6.8-13.5c4.5-3.2,10.9-4.8,19.2-4.8c7.9,0,15.5,1.7,23,5.1l-5.4,12.9c-3.3-1.4-6.3-2.6-9.2-3.5s-5.8-1.3-8.7-1.3
			c-5.3,0-7.9,1.4-7.9,4.3c0,1.6,0.8,3,2.5,4.2c1.7,1.2,5.4,2.9,11.1,5.2c5.1,2.1,8.9,4,11.2,5.8c2.4,1.8,4.1,3.9,5.3,6.2
			C190.4,287.5,190.9,290.3,190.9,293.6"/>
		<path class="st1" d="M232.4,299.9c3.1,0,6.9-0.7,11.2-2v13.3c-4.4,2-9.9,3-16.4,3c-7.1,0-12.3-1.8-15.6-5.4
			c-3.3-3.6-4.9-9-4.9-16.2V261h-8.5v-7.5l9.8-6l5.1-13.8h11.4v13.9h18.3V261h-18.3v31.5c0,2.5,0.7,4.4,2.1,5.6
			C228.2,299.3,230.1,299.9,232.4,299.9"/>
		<path class="st1" d="M271.1,280.2c0,6.5,1.1,11.4,3.2,14.7c2.1,3.3,5.6,5,10.4,5c4.8,0,8.2-1.6,10.3-4.9c2.1-3.3,3.1-8.2,3.1-14.7
			c0-6.5-1.1-11.3-3.2-14.6c-2.1-3.2-5.6-4.9-10.4-4.9c-4.8,0-8.2,1.6-10.3,4.8C272.1,268.8,271.1,273.6,271.1,280.2 M316.3,280.2
			c0,10.6-2.8,19-8.4,25c-5.6,6-13.4,9-23.5,9c-6.3,0-11.8-1.4-16.6-4.1c-4.8-2.7-8.5-6.7-11.1-11.8c-2.6-5.2-3.9-11.2-3.9-18
			c0-10.7,2.8-19,8.4-24.9c5.6-5.9,13.4-8.9,23.5-8.9c6.3,0,11.8,1.4,16.6,4.1c4.8,2.7,8.5,6.6,11.1,11.8
			C315,267.3,316.3,273.3,316.3,280.2"/>
		<path class="st1" d="M391.4,313h-17.8v-38.2c0-4.7-0.8-8.3-2.5-10.6c-1.7-2.4-4.3-3.5-8-3.5c-5,0-8.6,1.7-10.8,5
			c-2.2,3.3-3.3,8.9-3.3,16.6V313H331v-65.4h13.6l2.4,8.4h1c2-3.2,4.7-5.6,8.2-7.2c3.5-1.6,7.5-2.4,11.9-2.4
			c7.6,0,13.4,2.1,17.3,6.2c3.9,4.1,5.9,10.1,5.9,17.8V313z"/>
		<path class="st1" d="M446.1,282.7l-6.9,0.2c-5.2,0.2-9,1.1-11.6,2.8c-2.5,1.7-3.8,4.3-3.8,7.8c0,5,2.9,7.5,8.7,7.5
			c4.1,0,7.4-1.2,9.9-3.6c2.5-2.4,3.7-5.5,3.7-9.5V282.7z M451.3,313l-3.5-8.9h-0.5c-3,3.8-6.1,6.4-9.3,7.9
			c-3.2,1.5-7.3,2.2-12.4,2.2c-6.3,0-11.2-1.8-14.8-5.4c-3.6-3.6-5.4-8.7-5.4-15.3c0-6.9,2.4-12.1,7.3-15.4c4.9-3.3,12.2-5.1,22-5.5
			l11.4-0.3v-2.9c0-6.6-3.4-9.9-10.2-9.9c-5.2,0-11.4,1.6-18.4,4.7l-5.9-12.1c7.5-3.9,15.9-5.9,25-5.9c8.8,0,15.5,1.9,20.2,5.7
			c4.7,3.8,7,9.6,7,17.4V313H451.3z"/>
	</g>
</g>
</svg>
